<?xml version="1.0" encoding="utf-8"?>
<!-- Generator: Adobe Illustrator 23.1.0, SVG Export Plug-In . SVG Version: 6.00 Build 0)  -->
<svg version="1.1" id="Слой_2" xmlns="http://www.w3.org/2000/svg" xmlns:xlink="http://www.w3.org/1999/xlink" x="0px" y="0px"
	 viewBox="0 0 256 256" style="enable-background:new 0 0 256 256;" xml:space="preserve">
<style type="text/css">
	.st0{stroke:#000000;stroke-miterlimit:10;}
	.st1{fill:none;stroke:#000000;stroke-miterlimit:10;}
</style>
<path class="st0" d="M239.93,81.56c-0.79,8.4-8.26,14.81-16.69,14.43c-1.07-0.05-2.11-0.2-3.12-0.45l-10.07,50.21
	c-0.04,0.18-0.06,0.35-0.08,0.53L208,168v40H48v-40h0c0-8-1.26-19.04-2-22L35.88,95.53c-1.01,0.25-2.07,0.41-3.15,0.45
	c-8.42,0.37-15.86-6.04-16.65-14.43c-0.97-10.24,7.71-18.72,18.01-17.42c7.32,0.92,13.14,6.95,13.84,14.29
	c0.56,5.86-2.05,11.16-6.81,14.38L96,166c1.44,1.26,2.93,2,4.5,2h0c2.04,0,3.79-1.44,4.19-3.43L124.86,63.7
	c-7.54-1.5-13.18-8.31-12.85-16.38c0.34-8.17,7.02-14.9,15.19-15.3C136.4,31.57,144,38.9,144,48c0,7.77-5.53,14.24-12.86,15.7
	l20.17,100.87c0.4,2,2.15,3.43,4.19,3.43l0,0c1.57,0,3.06-0.74,4-2l54.89-73.19c-4.29-3.24-6.9-8.58-6.31-14.48
	c0.74-7.35,6.64-13.36,13.98-14.22C232.3,62.92,240.89,71.37,239.93,81.56z"/>
<g>
	<path d="M42,226c0,4.42,3.58,8,8,8h156c4.42,0,8-3.58,8-8s-3.58-8-8-8H50C45.58,218,42,221.58,42,226C42,226,42,221.58,42,226z"/>
	<path class="st1" d="M42,226c0,4.42,3.58,8,8,8h156c4.42,0,8-3.58,8-8s-3.58-8-8-8H50C45.58,218,42,221.58,42,226
		C42,226,42,221.58,42,226z"/>
</g>
<g>
</g>
<g>
</g>
<g>
</g>
<g>
</g>
<g>
</g>
<g>
</g>
<g>
</g>
<g>
</g>
<g>
</g>
<g>
</g>
<g>
</g>
<g>
</g>
<g>
</g>
<g>
</g>
<g>
</g>
</svg>
